<svg enable-background="new 0 0 128 128" viewBox="0 0 128 128" xmlns="http://www.w3.org/2000/svg"><path d="m97.3 23.9c-.7-.7-1.5-1-2.4-1h-61.8c-.9 0-1.7.3-2.4 1s-1 1.5-1 2.4v41.1c0 3.1.6 6.1 1.8 9.1s2.7 5.7 4.4 8c1.8 2.3 3.9 4.6 6.3 6.8s4.7 4.1 6.8 5.5c2.1 1.5 4.3 2.9 6.5 4.1 2.2 1.3 3.8 2.2 4.8 2.7.8.4 1.5.7 2.3 1.1.4.2.9.3 1.4.3s1-.1 1.4-.3c.8-.3 1.5-.7 2.3-1.1.9-.5 2.5-1.3 4.8-2.7 2.2-1.3 4.4-2.7 6.5-4.2s4.3-3.3 6.8-5.5c2.4-2.2 4.6-4.5 6.3-6.8 1.8-2.3 3.2-5 4.4-8s1.8-6.1 1.8-9.1v-41c0-.9-.4-1.7-1-2.4zm-9.3 43.5c0 6.3-4.2 12.7-12.6 19.3-3.4 2.6-7.2 5.1-11.4 7.3v-60.9h24z" fill="#175ddc"/></svg>