<svg width="249.244" height="283.465" xmlns:xlink="http://www.w3.org/1999/xlink" xmlns="http://www.w3.org/2000/svg"><defs><linearGradient id="a"><stop offset="0%" stop-color="#f7f8f8"/><stop offset="61%" stop-color="#fff"/><stop offset="100%" stop-color="#fff"/></linearGradient></defs><path d="M121.87 274.226L11.172 210.315a5.365 5.365 0 0 1-2.693-4.653h-.022V77.802a5.392 5.392 0 0 1 3.146-4.901L121.948 9.194a5.364 5.364 0 0 1 5.425.045l110.699 63.91a5.363 5.363 0 0 1 2.693 4.654h.022v127.859a5.39 5.39 0 0 1-3.146 4.901L127.296 274.27a5.364 5.364 0 0 1-5.426-.044zm-102.634-71.65l105.386 60.845 105.386-60.844V80.887L124.622 20.045 19.236 80.888z" fill="#000200" fill-rule="evenodd"/><path d="M124.622 13.847L13.847 205.662h221.55z" fill="#ffff00" fill-rule="evenodd"/><path d="M124.622 24.6L23.168 200.272h202.908zM9.194 202.967L119.93 11.218a5.377 5.377 0 0 1 9.344-.065l110.592 191.494c.582.86.92 1.898.92 3.015a5.39 5.39 0 0 1-5.39 5.389H13.848v-.012a5.377 5.377 0 0 1-4.653-8.072z" fill="#000200" fill-rule="evenodd"/><path d="M11.172 82.456a5.366 5.366 0 1 1 5.349-9.306l108.1 62.386L232.725 73.15a5.367 5.367 0 1 1 5.348 9.306l-110.7 63.885a5.363 5.363 0 0 1-5.425.043z" fill="#000200" fill-rule="evenodd"/><path d="M130.011 269.617a5.39 5.39 0 0 1-10.779 0V141.732a5.39 5.39 0 0 1 10.78 0zm105.387-50.109c7.646 0 13.846-6.199 13.846-13.846 0-7.648-6.2-13.847-13.846-13.847-7.648 0-13.847 6.199-13.847 13.847 0 7.647 6.199 13.846 13.847 13.846zm0-127.858c7.646 0 13.846-6.2 13.846-13.847 0-7.648-6.2-13.847-13.846-13.847-7.648 0-13.847 6.199-13.847 13.847 0 7.647 6.199 13.847 13.847 13.847zm-221.552 0c7.648 0 13.848-6.2 13.848-13.847 0-7.648-6.2-13.847-13.848-13.847C6.2 63.956 0 70.155 0 77.803 0 85.45 6.2 91.65 13.846 91.65zm0 127.858c7.648 0 13.848-6.199 13.848-13.846 0-7.648-6.2-13.847-13.848-13.847C6.2 191.815 0 198.014 0 205.662c0 7.647 6.2 13.846 13.846 13.846z" fill="#000200" fill-rule="evenodd"/><path d="M124.622 283.465c7.647 0 13.847-6.2 13.847-13.848 0-7.647-6.2-13.846-13.847-13.846-7.648 0-13.847 6.2-13.847 13.846 0 7.648 6.2 13.848 13.847 13.848zm0-127.886c7.647 0 13.847-6.2 13.847-13.847 0-7.648-6.2-13.847-13.847-13.847-7.648 0-13.847 6.2-13.847 13.847 0 7.647 6.2 13.847 13.847 13.847zm0-127.885c7.647 0 13.847-6.2 13.847-13.846C138.47 6.2 132.27 0 124.622 0c-7.648 0-13.847 6.2-13.847 13.848 0 7.646 6.2 13.846 13.847 13.846z" fill="#000200" fill-rule="evenodd"/></svg>