<svg enable-background="new 0 0 293 293" viewBox="0 0 293 293" xmlns="http://www.w3.org/2000/svg"><path d="m270 183c-9.9 0-18.3 6.2-21.6 15h-139.8c-2.3-6.3-7.3-11.2-13.6-13.6v-139.8c8.8-3.2 15-11.7 15-21.6 0-12.7-10.3-23-23-23s-23 10.3-23 23c0 9.9 6.2 18.3 15 21.6v139.9c-8.8 3.2-15 11.7-15 21.6 0 3.4.8 6.7 2.1 9.6l-33.5 33.5c-2.9-1.3-6.2-2.1-9.6-2.1-12.7 0-23 10.3-23 23s10.3 23 23 23 23-10.3 23-23c0-3.4-.8-6.7-2.1-9.6l33.5-33.5c2.9 1.3 6.2 2.1 9.6 2.1 9.9 0 18.3-6.2 21.6-15h139.9c3.2 8.8 11.7 15 21.6 15 12.7 0 23-10.3 23-23-.1-12.8-10.4-23.1-23.1-23.1z" fill="#9cc8f8" stroke="#9cc8f8"/><path d="m270 0c-12.7 0-23 10.3-23 23 0 3.4.8 6.7 2.1 9.6l-33.5 33.5c-2.9-1.3-6.2-2.1-9.6-2.1-9.9 0-18.3 6.2-21.6 15h-139.8c-3.3-8.8-11.7-15-21.6-15-12.7 0-23 10.3-23 23s10.3 23 23 23c9.9 0 18.3-6.2 21.6-15h139.9c2.3 6.3 7.3 11.2 13.6 13.6v139.9c-8.8 3.2-15 11.7-15 21.6 0 12.7 10.3 23 23 23s23-10.3 23-23c0-9.9-6.2-18.3-15-21.6v-139.9c8.8-3.2 15-11.7 15-21.6 0-3.4-.8-6.7-2.1-9.6l33.5-33.5c2.9 1.3 6.2 2.1 9.6 2.1 12.7 0 23-10.3 23-23s-10.4-23-23.1-23z" fill="#1685fc" stroke="#1685fc"/></svg>